<?xml version="1.0" encoding="utf-8"?>
<svg version="1.1" baseProfile="full"  width="660" height="660" viewBox="0 0 660 660"
		 xmlns="http://www.w3.org/2000/svg" xmlns:xlink="http://www.w3.org/1999/xlink" xmlns:ev="http://www.w3.org/2001/xml-events">
<desc></desc>
<rect width="660" height="660" fill="#ffffff" cx="0" cy="0" />
<defs>
<rect id="p" width="20" height="20" />
</defs>
<g fill="#2e3235">
<use x="40" y="40" xlink:href="#p" />
<use x="40" y="60" xlink:href="#p" />
<use x="40" y="80" xlink:href="#p" />
<use x="40" y="100" xlink:href="#p" />
<use x="40" y="120" xlink:href="#p" />
<use x="40" y="140" xlink:href="#p" />
<use x="40" y="160" xlink:href="#p" />
<use x="40" y="200" xlink:href="#p" />
<use x="40" y="220" xlink:href="#p" />
<use x="40" y="240" xlink:href="#p" />
<use x="40" y="340" xlink:href="#p" />
<use x="40" y="380" xlink:href="#p" />
<use x="40" y="420" xlink:href="#p" />
<use x="40" y="480" xlink:href="#p" />
<use x="40" y="500" xlink:href="#p" />
<use x="40" y="520" xlink:href="#p" />
<use x="40" y="540" xlink:href="#p" />
<use x="40" y="560" xlink:href="#p" />
<use x="40" y="580" xlink:href="#p" />
<use x="40" y="600" xlink:href="#p" />
<use x="60" y="40" xlink:href="#p" />
<use x="60" y="160" xlink:href="#p" />
<use x="60" y="200" xlink:href="#p" />
<use x="60" y="220" xlink:href="#p" />
<use x="60" y="240" xlink:href="#p" />
<use x="60" y="280" xlink:href="#p" />
<use x="60" y="360" xlink:href="#p" />
<use x="60" y="380" xlink:href="#p" />
<use x="60" y="400" xlink:href="#p" />
<use x="60" y="420" xlink:href="#p" />
<use x="60" y="440" xlink:href="#p" />
<use x="60" y="480" xlink:href="#p" />
<use x="60" y="600" xlink:href="#p" />
<use x="80" y="40" xlink:href="#p" />
<use x="80" y="80" xlink:href="#p" />
<use x="80" y="100" xlink:href="#p" />
<use x="80" y="120" xlink:href="#p" />
<use x="80" y="160" xlink:href="#p" />
<use x="80" y="220" xlink:href="#p" />
<use x="80" y="280" xlink:href="#p" />
<use x="80" y="300" xlink:href="#p" />
<use x="80" y="360" xlink:href="#p" />
<use x="80" y="420" xlink:href="#p" />
<use x="80" y="480" xlink:href="#p" />
<use x="80" y="520" xlink:href="#p" />
<use x="80" y="540" xlink:href="#p" />
<use x="80" y="560" xlink:href="#p" />
<use x="80" y="600" xlink:href="#p" />
<use x="100" y="40" xlink:href="#p" />
<use x="100" y="80" xlink:href="#p" />
<use x="100" y="100" xlink:href="#p" />
<use x="100" y="120" xlink:href="#p" />
<use x="100" y="160" xlink:href="#p" />
<use x="100" y="200" xlink:href="#p" />
<use x="100" y="220" xlink:href="#p" />
<use x="100" y="300" xlink:href="#p" />
<use x="100" y="320" xlink:href="#p" />
<use x="100" y="340" xlink:href="#p" />
<use x="100" y="360" xlink:href="#p" />
<use x="100" y="380" xlink:href="#p" />
<use x="100" y="420" xlink:href="#p" />
<use x="100" y="440" xlink:href="#p" />
<use x="100" y="480" xlink:href="#p" />
<use x="100" y="520" xlink:href="#p" />
<use x="100" y="540" xlink:href="#p" />
<use x="100" y="560" xlink:href="#p" />
<use x="100" y="600" xlink:href="#p" />
<use x="120" y="40" xlink:href="#p" />
<use x="120" y="80" xlink:href="#p" />
<use x="120" y="100" xlink:href="#p" />
<use x="120" y="120" xlink:href="#p" />
<use x="120" y="160" xlink:href="#p" />
<use x="120" y="260" xlink:href="#p" />
<use x="120" y="340" xlink:href="#p" />
<use x="120" y="360" xlink:href="#p" />
<use x="120" y="380" xlink:href="#p" />
<use x="120" y="480" xlink:href="#p" />
<use x="120" y="520" xlink:href="#p" />
<use x="120" y="540" xlink:href="#p" />
<use x="120" y="560" xlink:href="#p" />
<use x="120" y="600" xlink:href="#p" />
<use x="140" y="40" xlink:href="#p" />
<use x="140" y="160" xlink:href="#p" />
<use x="140" y="240" xlink:href="#p" />
<use x="140" y="320" xlink:href="#p" />
<use x="140" y="340" xlink:href="#p" />
<use x="140" y="400" xlink:href="#p" />
<use x="140" y="420" xlink:href="#p" />
<use x="140" y="440" xlink:href="#p" />
<use x="140" y="480" xlink:href="#p" />
<use x="140" y="600" xlink:href="#p" />
<use x="160" y="40" xlink:href="#p" />
<use x="160" y="60" xlink:href="#p" />
<use x="160" y="80" xlink:href="#p" />
<use x="160" y="100" xlink:href="#p" />
<use x="160" y="120" xlink:href="#p" />
<use x="160" y="140" xlink:href="#p" />
<use x="160" y="160" xlink:href="#p" />
<use x="160" y="200" xlink:href="#p" />
<use x="160" y="240" xlink:href="#p" />
<use x="160" y="280" xlink:href="#p" />
<use x="160" y="320" xlink:href="#p" />
<use x="160" y="360" xlink:href="#p" />
<use x="160" y="400" xlink:href="#p" />
<use x="160" y="440" xlink:href="#p" />
<use x="160" y="480" xlink:href="#p" />
<use x="160" y="500" xlink:href="#p" />
<use x="160" y="520" xlink:href="#p" />
<use x="160" y="540" xlink:href="#p" />
<use x="160" y="560" xlink:href="#p" />
<use x="160" y="580" xlink:href="#p" />
<use x="160" y="600" xlink:href="#p" />
<use x="180" y="200" xlink:href="#p" />
<use x="180" y="260" xlink:href="#p" />
<use x="180" y="280" xlink:href="#p" />
<use x="180" y="300" xlink:href="#p" />
<use x="180" y="380" xlink:href="#p" />
<use x="180" y="440" xlink:href="#p" />
<use x="200" y="60" xlink:href="#p" />
<use x="200" y="80" xlink:href="#p" />
<use x="200" y="120" xlink:href="#p" />
<use x="200" y="140" xlink:href="#p" />
<use x="200" y="160" xlink:href="#p" />
<use x="200" y="180" xlink:href="#p" />
<use x="200" y="220" xlink:href="#p" />
<use x="200" y="240" xlink:href="#p" />
<use x="200" y="260" xlink:href="#p" />
<use x="200" y="280" xlink:href="#p" />
<use x="200" y="300" xlink:href="#p" />
<use x="200" y="340" xlink:href="#p" />
<use x="200" y="380" xlink:href="#p" />
<use x="200" y="400" xlink:href="#p" />
<use x="200" y="440" xlink:href="#p" />
<use x="200" y="460" xlink:href="#p" />
<use x="200" y="480" xlink:href="#p" />
<use x="200" y="540" xlink:href="#p" />
<use x="200" y="580" xlink:href="#p" />
<use x="200" y="600" xlink:href="#p" />
<use x="220" y="40" xlink:href="#p" />
<use x="220" y="60" xlink:href="#p" />
<use x="220" y="120" xlink:href="#p" />
<use x="220" y="140" xlink:href="#p" />
<use x="220" y="180" xlink:href="#p" />
<use x="220" y="240" xlink:href="#p" />
<use x="220" y="300" xlink:href="#p" />
<use x="220" y="320" xlink:href="#p" />
<use x="220" y="340" xlink:href="#p" />
<use x="220" y="360" xlink:href="#p" />
<use x="220" y="440" xlink:href="#p" />
<use x="220" y="460" xlink:href="#p" />
<use x="220" y="480" xlink:href="#p" />
<use x="220" y="500" xlink:href="#p" />
<use x="220" y="520" xlink:href="#p" />
<use x="220" y="560" xlink:href="#p" />
<use x="220" y="600" xlink:href="#p" />
<use x="240" y="40" xlink:href="#p" />
<use x="240" y="100" xlink:href="#p" />
<use x="240" y="140" xlink:href="#p" />
<use x="240" y="160" xlink:href="#p" />
<use x="240" y="180" xlink:href="#p" />
<use x="240" y="200" xlink:href="#p" />
<use x="240" y="240" xlink:href="#p" />
<use x="240" y="300" xlink:href="#p" />
<use x="240" y="320" xlink:href="#p" />
<use x="240" y="340" xlink:href="#p" />
<use x="240" y="360" xlink:href="#p" />
<use x="240" y="420" xlink:href="#p" />
<use x="240" y="440" xlink:href="#p" />
<use x="240" y="480" xlink:href="#p" />
<use x="240" y="500" xlink:href="#p" />
<use x="240" y="520" xlink:href="#p" />
<use x="240" y="540" xlink:href="#p" />
<use x="240" y="560" xlink:href="#p" />
<use x="240" y="580" xlink:href="#p" />
<use x="260" y="40" xlink:href="#p" />
<use x="260" y="60" xlink:href="#p" />
<use x="260" y="80" xlink:href="#p" />
<use x="260" y="100" xlink:href="#p" />
<use x="260" y="120" xlink:href="#p" />
<use x="260" y="180" xlink:href="#p" />
<use x="260" y="260" xlink:href="#p" />
<use x="260" y="280" xlink:href="#p" />
<use x="260" y="320" xlink:href="#p" />
<use x="260" y="380" xlink:href="#p" />
<use x="260" y="420" xlink:href="#p" />
<use x="260" y="440" xlink:href="#p" />
<use x="260" y="500" xlink:href="#p" />
<use x="260" y="560" xlink:href="#p" />
<use x="260" y="580" xlink:href="#p" />
<use x="280" y="100" xlink:href="#p" />
<use x="280" y="160" xlink:href="#p" />
<use x="280" y="200" xlink:href="#p" />
<use x="280" y="220" xlink:href="#p" />
<use x="280" y="240" xlink:href="#p" />
<use x="280" y="260" xlink:href="#p" />
<use x="280" y="280" xlink:href="#p" />
<use x="280" y="380" xlink:href="#p" />
<use x="280" y="420" xlink:href="#p" />
<use x="280" y="440" xlink:href="#p" />
<use x="280" y="460" xlink:href="#p" />
<use x="280" y="500" xlink:href="#p" />
<use x="280" y="520" xlink:href="#p" />
<use x="280" y="540" xlink:href="#p" />
<use x="280" y="600" xlink:href="#p" />
<use x="300" y="40" xlink:href="#p" />
<use x="300" y="60" xlink:href="#p" />
<use x="300" y="120" xlink:href="#p" />
<use x="300" y="200" xlink:href="#p" />
<use x="300" y="220" xlink:href="#p" />
<use x="300" y="240" xlink:href="#p" />
<use x="300" y="260" xlink:href="#p" />
<use x="300" y="280" xlink:href="#p" />
<use x="300" y="300" xlink:href="#p" />
<use x="300" y="320" xlink:href="#p" />
<use x="300" y="340" xlink:href="#p" />
<use x="300" y="360" xlink:href="#p" />
<use x="300" y="400" xlink:href="#p" />
<use x="300" y="440" xlink:href="#p" />
<use x="300" y="480" xlink:href="#p" />
<use x="300" y="500" xlink:href="#p" />
<use x="300" y="520" xlink:href="#p" />
<use x="300" y="540" xlink:href="#p" />
<use x="300" y="580" xlink:href="#p" />
<use x="320" y="60" xlink:href="#p" />
<use x="320" y="80" xlink:href="#p" />
<use x="320" y="100" xlink:href="#p" />
<use x="320" y="140" xlink:href="#p" />
<use x="320" y="160" xlink:href="#p" />
<use x="320" y="200" xlink:href="#p" />
<use x="320" y="220" xlink:href="#p" />
<use x="320" y="320" xlink:href="#p" />
<use x="320" y="420" xlink:href="#p" />
<use x="320" y="440" xlink:href="#p" />
<use x="320" y="480" xlink:href="#p" />
<use x="320" y="560" xlink:href="#p" />
<use x="320" y="580" xlink:href="#p" />
<use x="340" y="60" xlink:href="#p" />
<use x="340" y="120" xlink:href="#p" />
<use x="340" y="140" xlink:href="#p" />
<use x="340" y="340" xlink:href="#p" />
<use x="340" y="360" xlink:href="#p" />
<use x="340" y="420" xlink:href="#p" />
<use x="340" y="520" xlink:href="#p" />
<use x="340" y="540" xlink:href="#p" />
<use x="340" y="600" xlink:href="#p" />
<use x="360" y="80" xlink:href="#p" />
<use x="360" y="100" xlink:href="#p" />
<use x="360" y="120" xlink:href="#p" />
<use x="360" y="140" xlink:href="#p" />
<use x="360" y="160" xlink:href="#p" />
<use x="360" y="200" xlink:href="#p" />
<use x="360" y="220" xlink:href="#p" />
<use x="360" y="240" xlink:href="#p" />
<use x="360" y="260" xlink:href="#p" />
<use x="360" y="280" xlink:href="#p" />
<use x="360" y="380" xlink:href="#p" />
<use x="360" y="400" xlink:href="#p" />
<use x="360" y="420" xlink:href="#p" />
<use x="360" y="460" xlink:href="#p" />
<use x="360" y="480" xlink:href="#p" />
<use x="360" y="500" xlink:href="#p" />
<use x="360" y="560" xlink:href="#p" />
<use x="360" y="580" xlink:href="#p" />
<use x="380" y="80" xlink:href="#p" />
<use x="380" y="120" xlink:href="#p" />
<use x="380" y="140" xlink:href="#p" />
<use x="380" y="180" xlink:href="#p" />
<use x="380" y="280" xlink:href="#p" />
<use x="380" y="340" xlink:href="#p" />
<use x="380" y="360" xlink:href="#p" />
<use x="380" y="380" xlink:href="#p" />
<use x="380" y="400" xlink:href="#p" />
<use x="380" y="420" xlink:href="#p" />
<use x="380" y="460" xlink:href="#p" />
<use x="380" y="480" xlink:href="#p" />
<use x="380" y="520" xlink:href="#p" />
<use x="380" y="540" xlink:href="#p" />
<use x="380" y="560" xlink:href="#p" />
<use x="380" y="580" xlink:href="#p" />
<use x="380" y="600" xlink:href="#p" />
<use x="400" y="40" xlink:href="#p" />
<use x="400" y="80" xlink:href="#p" />
<use x="400" y="120" xlink:href="#p" />
<use x="400" y="140" xlink:href="#p" />
<use x="400" y="160" xlink:href="#p" />
<use x="400" y="240" xlink:href="#p" />
<use x="400" y="260" xlink:href="#p" />
<use x="400" y="340" xlink:href="#p" />
<use x="400" y="360" xlink:href="#p" />
<use x="400" y="420" xlink:href="#p" />
<use x="400" y="460" xlink:href="#p" />
<use x="400" y="480" xlink:href="#p" />
<use x="400" y="540" xlink:href="#p" />
<use x="400" y="580" xlink:href="#p" />
<use x="420" y="40" xlink:href="#p" />
<use x="420" y="100" xlink:href="#p" />
<use x="420" y="140" xlink:href="#p" />
<use x="420" y="200" xlink:href="#p" />
<use x="420" y="240" xlink:href="#p" />
<use x="420" y="260" xlink:href="#p" />
<use x="420" y="300" xlink:href="#p" />
<use x="420" y="340" xlink:href="#p" />
<use x="420" y="420" xlink:href="#p" />
<use x="420" y="460" xlink:href="#p" />
<use x="420" y="560" xlink:href="#p" />
<use x="420" y="580" xlink:href="#p" />
<use x="420" y="600" xlink:href="#p" />
<use x="440" y="60" xlink:href="#p" />
<use x="440" y="80" xlink:href="#p" />
<use x="440" y="100" xlink:href="#p" />
<use x="440" y="140" xlink:href="#p" />
<use x="440" y="160" xlink:href="#p" />
<use x="440" y="220" xlink:href="#p" />
<use x="440" y="240" xlink:href="#p" />
<use x="440" y="300" xlink:href="#p" />
<use x="440" y="320" xlink:href="#p" />
<use x="440" y="360" xlink:href="#p" />
<use x="440" y="420" xlink:href="#p" />
<use x="440" y="440" xlink:href="#p" />
<use x="440" y="460" xlink:href="#p" />
<use x="440" y="480" xlink:href="#p" />
<use x="440" y="500" xlink:href="#p" />
<use x="440" y="520" xlink:href="#p" />
<use x="440" y="540" xlink:href="#p" />
<use x="440" y="560" xlink:href="#p" />
<use x="440" y="580" xlink:href="#p" />
<use x="440" y="600" xlink:href="#p" />
<use x="460" y="220" xlink:href="#p" />
<use x="460" y="280" xlink:href="#p" />
<use x="460" y="300" xlink:href="#p" />
<use x="460" y="320" xlink:href="#p" />
<use x="460" y="360" xlink:href="#p" />
<use x="460" y="420" xlink:href="#p" />
<use x="460" y="440" xlink:href="#p" />
<use x="460" y="520" xlink:href="#p" />
<use x="460" y="560" xlink:href="#p" />
<use x="460" y="580" xlink:href="#p" />
<use x="480" y="40" xlink:href="#p" />
<use x="480" y="60" xlink:href="#p" />
<use x="480" y="80" xlink:href="#p" />
<use x="480" y="100" xlink:href="#p" />
<use x="480" y="120" xlink:href="#p" />
<use x="480" y="140" xlink:href="#p" />
<use x="480" y="160" xlink:href="#p" />
<use x="480" y="200" xlink:href="#p" />
<use x="480" y="220" xlink:href="#p" />
<use x="480" y="280" xlink:href="#p" />
<use x="480" y="320" xlink:href="#p" />
<use x="480" y="380" xlink:href="#p" />
<use x="480" y="400" xlink:href="#p" />
<use x="480" y="440" xlink:href="#p" />
<use x="480" y="480" xlink:href="#p" />
<use x="480" y="520" xlink:href="#p" />
<use x="480" y="540" xlink:href="#p" />
<use x="480" y="580" xlink:href="#p" />
<use x="480" y="600" xlink:href="#p" />
<use x="500" y="40" xlink:href="#p" />
<use x="500" y="160" xlink:href="#p" />
<use x="500" y="200" xlink:href="#p" />
<use x="500" y="240" xlink:href="#p" />
<use x="500" y="340" xlink:href="#p" />
<use x="500" y="380" xlink:href="#p" />
<use x="500" y="440" xlink:href="#p" />
<use x="500" y="520" xlink:href="#p" />
<use x="500" y="540" xlink:href="#p" />
<use x="500" y="600" xlink:href="#p" />
<use x="520" y="40" xlink:href="#p" />
<use x="520" y="80" xlink:href="#p" />
<use x="520" y="100" xlink:href="#p" />
<use x="520" y="120" xlink:href="#p" />
<use x="520" y="160" xlink:href="#p" />
<use x="520" y="200" xlink:href="#p" />
<use x="520" y="320" xlink:href="#p" />
<use x="520" y="340" xlink:href="#p" />
<use x="520" y="420" xlink:href="#p" />
<use x="520" y="440" xlink:href="#p" />
<use x="520" y="460" xlink:href="#p" />
<use x="520" y="480" xlink:href="#p" />
<use x="520" y="500" xlink:href="#p" />
<use x="520" y="520" xlink:href="#p" />
<use x="520" y="540" xlink:href="#p" />
<use x="520" y="560" xlink:href="#p" />
<use x="520" y="580" xlink:href="#p" />
<use x="540" y="40" xlink:href="#p" />
<use x="540" y="80" xlink:href="#p" />
<use x="540" y="100" xlink:href="#p" />
<use x="540" y="120" xlink:href="#p" />
<use x="540" y="160" xlink:href="#p" />
<use x="540" y="220" xlink:href="#p" />
<use x="540" y="240" xlink:href="#p" />
<use x="540" y="260" xlink:href="#p" />
<use x="540" y="280" xlink:href="#p" />
<use x="540" y="340" xlink:href="#p" />
<use x="540" y="360" xlink:href="#p" />
<use x="540" y="400" xlink:href="#p" />
<use x="540" y="540" xlink:href="#p" />
<use x="540" y="560" xlink:href="#p" />
<use x="540" y="600" xlink:href="#p" />
<use x="560" y="40" xlink:href="#p" />
<use x="560" y="80" xlink:href="#p" />
<use x="560" y="100" xlink:href="#p" />
<use x="560" y="120" xlink:href="#p" />
<use x="560" y="160" xlink:href="#p" />
<use x="560" y="200" xlink:href="#p" />
<use x="560" y="240" xlink:href="#p" />
<use x="560" y="260" xlink:href="#p" />
<use x="560" y="300" xlink:href="#p" />
<use x="560" y="320" xlink:href="#p" />
<use x="560" y="440" xlink:href="#p" />
<use x="560" y="460" xlink:href="#p" />
<use x="560" y="500" xlink:href="#p" />
<use x="560" y="540" xlink:href="#p" />
<use x="580" y="40" xlink:href="#p" />
<use x="580" y="160" xlink:href="#p" />
<use x="580" y="200" xlink:href="#p" />
<use x="580" y="240" xlink:href="#p" />
<use x="580" y="260" xlink:href="#p" />
<use x="580" y="280" xlink:href="#p" />
<use x="580" y="320" xlink:href="#p" />
<use x="580" y="340" xlink:href="#p" />
<use x="580" y="360" xlink:href="#p" />
<use x="580" y="400" xlink:href="#p" />
<use x="580" y="420" xlink:href="#p" />
<use x="580" y="460" xlink:href="#p" />
<use x="580" y="480" xlink:href="#p" />
<use x="580" y="500" xlink:href="#p" />
<use x="580" y="520" xlink:href="#p" />
<use x="580" y="580" xlink:href="#p" />
<use x="580" y="600" xlink:href="#p" />
<use x="600" y="40" xlink:href="#p" />
<use x="600" y="60" xlink:href="#p" />
<use x="600" y="80" xlink:href="#p" />
<use x="600" y="100" xlink:href="#p" />
<use x="600" y="120" xlink:href="#p" />
<use x="600" y="140" xlink:href="#p" />
<use x="600" y="160" xlink:href="#p" />
<use x="600" y="220" xlink:href="#p" />
<use x="600" y="280" xlink:href="#p" />
<use x="600" y="320" xlink:href="#p" />
<use x="600" y="380" xlink:href="#p" />
<use x="600" y="400" xlink:href="#p" />
<use x="600" y="420" xlink:href="#p" />
<use x="600" y="460" xlink:href="#p" />
<use x="600" y="520" xlink:href="#p" />
<use x="600" y="560" xlink:href="#p" />
</g>

</svg>